<svg xmlns="http://www.w3.org/2000/svg" xmlns:xlink="http://www.w3.org/1999/xlink" width="53" height="55" viewBox="0 0 53 55">
  <defs>
    <clipPath id="clip-path">
      <rect id="Rectangle_100" data-name="Rectangle 100" width="53" height="55" rx="11" fill="#fac119" stroke="#707070" stroke-width="1"/>
    </clipPath>
  </defs>
  <g id="Mask_Group_43" data-name="Mask Group 43" clip-path="url(#clip-path)">
    <path id="Channels" d="M37.548,27.27A1.657,1.657,0,0,1,39.2,25.613h7.73a1.657,1.657,0,0,1,0,3.313H39.2a1.657,1.657,0,0,1-1.657-1.657ZM39.2,33.344a1.657,1.657,0,1,0,0,3.313h7.73a1.657,1.657,0,0,0,0-3.313Zm-6.074-6.626a3.313,3.313,0,1,1-.97-2.343A3.313,3.313,0,0,1,33.131,26.717Zm-17.67,5.522a2.209,2.209,0,0,0-2.209,2.209v2.209s0,4.417,6.074,4.417S25.4,36.657,25.4,36.657V34.448a2.209,2.209,0,0,0-2.209-2.209Zm7.73-6.074a3.865,3.865,0,1,1-1.132-2.733A3.865,3.865,0,0,1,23.191,26.165Zm6.626,12.7H27.134a6.707,6.707,0,0,0,.453-1.8c.009-.1.015-.188.018-.256v-.029h0v-2.33a4.4,4.4,0,0,0-.592-2.209h5.009a2.209,2.209,0,0,1,2.209,2.209,4.417,4.417,0,0,1-4.417,4.417ZM4.426,17.33a8.283,8.283,0,0,1,8.283-8.283H49.144a8.282,8.282,0,0,1,8.282,8.283V44.939a8.282,8.282,0,0,1-8.282,8.283H12.711a8.282,8.282,0,0,1-8.283-8.283V17.33Zm8.283-4.97a4.97,4.97,0,0,0-4.97,4.97V44.939a4.969,4.969,0,0,0,4.97,4.97H49.144a4.969,4.969,0,0,0,4.97-4.97V17.33a4.97,4.97,0,0,0-4.97-4.97H12.709Z" transform="translate(-4.426 -3.635)" fill="#fac119"/>
  </g>
</svg>
