<svg xmlns="http://www.w3.org/2000/svg" xmlns:xlink="http://www.w3.org/1999/xlink" width="53" height="55" viewBox="0 0 53 55">
  <defs>
    <clipPath id="clip-path">
      <rect id="Rectangle_100" data-name="Rectangle 100" width="53" height="55" rx="11" fill="#fac119" stroke="#707070" stroke-width="1"/>
    </clipPath>
  </defs>
  <g id="Mask_Group_46" data-name="Mask Group 46" clip-path="url(#clip-path)">
    <g id="Draft" transform="translate(-3.786 -2.786)">
      <path id="Path_417" data-name="Path 417" d="M7.571,13.25V43.536a3.786,3.786,0,0,0,3.786,3.786H49.214A3.786,3.786,0,0,0,53,43.536V13.25Zm0-3.786H53a3.786,3.786,0,0,1,3.786,3.786V43.536a7.572,7.572,0,0,1-7.571,7.571H11.357a7.572,7.572,0,0,1-7.571-7.571V13.25A3.786,3.786,0,0,1,7.571,9.464Z" fill="#fac119"/>
      <path id="Path_418" data-name="Path 418" d="M53.473,13.25,38.834,29.983a11.357,11.357,0,0,1-17.1,0L7.1,13.25Zm-41.344,0L24.584,27.488a7.571,7.571,0,0,0,11.4,0L48.442,13.25Z" fill="#fac119"/>
    </g>
  </g>
</svg>
